first trial																																					
nRows=38																																					
nColumns=38																																					
																																					
# SIMM Motion File Header:																																					
name MVN-014																																					
datacolumns 38																																					
datarows 38																																					
otherdata 1																																					
range 0 0.616																																					
endheader																																					
time	pelvis_tilt	pelvis_list	pelvis_rotation	pelvis_tx	pelvis_ty	pelvis_tz	hip_flexion_r	hip_adduction_r	hip_rotation_r	knee_angle_r	ankle_angle_r	subtalar_angle_r	mtp_angle_r	hip_flexion_l	hip_adduction_l	hip_rotation_l	knee_angle_l	ankle_angle_l	subtalar_angle_l	mtp_angle_l	lumbar_extension	lumbar_bending	lumbar_rotation	arm_flex_r	arm_add_r	arm_rot_r	elbow_flex_r	pro_sup_r	wrist_flex_r	wrist_dev_r	arm_flex_l	arm_add_l	arm_rot_l	elbow_flex_l	pro_sup_l	wrist_flex_l	wrist_dev_l
0	20.0783	1.3337	91.2664	-0.2972	0.7686	0.4581	28.3467	-14.9231	7.6846	27.3363	-19.3557	8.7467	0	34.1076	-0.9859	3.1739	41.8432	-13.0682	-1.3142	0	-7.2069	4.9256	-2.7153	24.9611	-28.5411	-5.3485	41.4953	36.4656	-14.3265	-32.3876	16.6709	-30.8087	4.4034	34.0578	102.0564	-6.7699	8.6344
0.017	20.1692	1.3362	91.248	-0.297	0.7692	0.4575	28.177	-14.8712	7.6668	27.2588	-19.4138	8.769	0	33.91	-1.0196	3.1685	41.7539	-13.0643	-1.3123	0	-7.2257	4.9082	-2.7064	24.946	-28.5086	-5.3621	41.4614	36.5026	-14.3245	-32.3901	16.6626	-30.8164	4.4131	34.0328	102.063	-6.7815	8.6316
0.033	20.26	1.3387	91.2295	-0.2968	0.7698	0.4569	28.0073	-14.8194	7.6492	27.1814	-19.4719	8.7914	0	33.7124	-1.0533	3.163	41.6647	-13.0604	-1.3105	0	-7.2446	4.8908	-2.6974	24.9308	-28.4761	-5.3758	41.4274	36.5397	-14.3226	-32.3927	16.6543	-30.8241	4.4229	34.0079	102.0697	-6.793	8.6288
0.05	20.3426	1.3387	91.2115	-0.2966	0.7703	0.4564	27.8567	-14.7703	7.635	27.1188	-19.5229	8.8124	0	33.5328	-1.0866	3.158	41.581	-13.0582	-1.3086	0	-7.2629	4.8766	-2.6876	24.9166	-28.449	-5.3879	41.3965	36.5734	-14.3208	-32.3952	16.6477	-30.8308	4.4307	33.9823	102.0767	-6.8049	8.6267
0.066	20.4132	1.3336	91.1937	-0.2964	0.7709	0.4559	27.7354	-14.7244	7.6269	27.0806	-19.5629	8.8323	0	33.3793	-1.1205	3.1544	41.5046	-13.059	-1.3066	0	-7.2807	4.8677	-2.6763	24.9031	-28.4308	-5.3976	41.3711	36.6013	-14.3187	-32.3979	16.6446	-30.8353	4.4355	33.9541	102.0856	-6.818	8.6258
0.083	20.4756	1.3259	91.1763	-0.2963	0.7714	0.4556	27.6332	-14.6812	7.6223	27.0573	-19.5958	8.8509	0	33.2438	-1.1539	3.1512	41.4338	-13.0614	-1.3046	0	-7.2979	4.862	-2.6641	24.8906	-28.4179	-5.4058	41.3489	36.6258	-14.3167	-32.4006	16.6431	-30.8389	4.4385	33.9253	102.0949	-6.8314	8.6254
0.1	20.532	1.32	91.1605	-0.2961	0.7719	0.4552	27.5385	-14.6432	7.6171	27.0343	-19.6268	8.8665	0	33.1198	-1.184	3.1466	41.3693	-13.0631	-1.3023	0	-7.3139	4.8562	-2.6533	24.8806	-28.4051	-5.4141	41.3254	36.6512	-14.3164	-32.4028	16.6393	-30.8432	4.4414	33.9011	102.1006	-6.8425	8.6251
0.116	20.5828	1.3178	91.1466	-0.296	0.7724	0.4548	27.4479	-14.6118	7.6094	27.0067	-19.6574	8.8778	0	33.0058	-1.2091	3.1393	41.312	-13.0631	-1.3	0	-7.3279	4.8492	-2.6447	24.8748	-28.3902	-5.4235	41.2972	36.68	-14.3188	-32.4032	16.6307	-30.8491	4.4455	33.8838	102.0979	-6.8494	8.6248
0.133	20.6276	1.3174	91.1343	-0.2958	0.7728	0.4545	27.3648	-14.5854	7.6011	26.9796	-19.6861	8.8861	0	32.9032	-1.2308	3.1305	41.2609	-13.0623	-1.2974	0	-7.3405	4.8421	-2.6374	24.8714	-28.3754	-5.433	41.2677	36.7098	-14.3229	-32.403	16.6197	-30.8557	4.4495	33.8712	102.0916	-6.8539	8.6244
0.15	20.6676	1.3171	91.1228	-0.2957	0.7732	0.4542	27.2885	-14.5613	7.5942	26.9534	-19.7132	8.8937	0	32.81	-1.251	3.1223	41.2143	-13.0614	-1.2944	0	-7.3536	4.836	-2.6307	24.8674	-28.3629	-5.441	41.2437	36.7368	-14.327	-32.4051	16.6102	-30.8629	4.452	33.8615	102.0927	-6.8586	8.6228
0.166	20.7027	1.3167	91.1125	-0.2956	0.7735	0.4539	27.2189	-14.5387	7.5898	26.9279	-19.739	8.9016	0	32.7262	-1.2704	3.1151	41.1722	-13.0602	-1.2905	0	-7.3669	4.8316	-2.625	24.8602	-28.3551	-5.4483	41.2278	36.7604	-14.3304	-32.4117	16.6037	-30.8701	4.4517	33.8538	102.1093	-6.8646	8.6188
0.183	20.7328	1.3163	91.1034	-0.2955	0.7739	0.4536	27.1561	-14.5183	7.5868	26.9034	-19.7633	8.9088	0	32.6516	-1.2883	3.1084	41.1347	-13.0588	-1.2862	0	-7.3806	4.8281	-2.6198	24.8524	-28.3496	-5.4542	41.2173	36.7813	-14.3339	-32.4206	16.5987	-30.8778	4.4499	33.8492	102.1333	-6.8707	8.6136
0.2	20.7596	1.3162	91.0949	-0.2953	0.7742	0.4533	27.0994	-14.499	7.5837	26.8808	-19.7856	8.9139	0	32.5839	-1.3051	3.103	41.0996	-13.0582	-1.2827	0	-7.3963	4.8242	-2.6138	24.8484	-28.3409	-5.4553	41.21	36.7981	-14.3381	-32.4284	16.5941	-30.887	4.4481	33.8487	102.1512	-6.8767	8.6096
0.217	20.7827	1.3157	91.0875	-0.2952	0.7744	0.4531	27.0495	-14.4803	7.5801	26.8609	-19.8057	8.9158	0	32.5233	-1.3207	3.099	41.0664	-13.0588	-1.2805	0	-7.4162	4.8195	-2.6061	24.852	-28.3255	-5.4487	41.2059	36.8092	-14.3444	-32.4334	16.5894	-30.899	4.4452	33.8548	102.1579	-6.8825	8.6078
0.233	20.8024	1.3155	91.0808	-0.2951	0.7747	0.4529	27.0056	-14.4627	7.5766	26.8429	-19.8238	8.9157	0	32.4695	-1.3351	3.0961	41.0356	-13.0601	-1.279	0	-7.4381	4.8143	-2.5975	24.8595	-28.3068	-5.4374	41.205	36.8161	-14.3514	-32.4372	16.5851	-30.9124	4.4424	33.8652	102.1584	-6.8881	8.6072
0.25	20.8207	1.3154	91.0748	-0.295	0.7749	0.4527	26.9642	-14.4467	7.5733	26.8261	-19.8403	8.9159	0	32.4188	-1.3484	3.0942	41.0065	-13.0615	-1.2775	0	-7.4574	4.8086	-2.5889	24.8646	-28.2899	-5.4265	41.2048	36.8221	-14.3555	-32.4412	16.5829	-30.9246	4.4443	33.8734	102.1553	-6.8929	8.6072
0.266	20.8377	1.316	91.0693	-0.2949	0.7752	0.4525	26.9244	-14.4325	7.5712	26.8105	-19.8544	8.9171	0	32.3703	-1.3602	3.0936	40.979	-13.0623	-1.276	0	-7.4716	4.8017	-2.58	24.8647	-28.2756	-5.4177	41.2042	36.8292	-14.3537	-32.4471	16.5844	-30.9344	4.4553	33.8768	102.1459	-6.8967	8.6082
0.283	20.8532	1.3169	91.0643	-0.2948	0.7754	0.4523	26.8871	-14.4199	7.5694	26.796	-19.8669	8.9187	0	32.3248	-1.3708	3.094	40.9531	-13.0632	-1.2744	0	-7.4832	4.7941	-2.5711	24.8625	-28.263	-5.4095	41.2043	36.8353	-14.349	-32.4531	16.588	-30.9429	4.4711	33.878	102.1327	-6.8997	8.6098
0.3	20.8688	1.3173	91.0598	-0.2947	0.7756	0.4521	26.8508	-14.4088	7.5651	26.7816	-19.8797	8.9212	0	32.2813	-1.3811	3.094	40.9287	-13.0651	-1.2724	0	-7.495	4.7875	-2.5636	24.8604	-28.2546	-5.4017	41.2068	36.8377	-14.3469	-32.4561	16.5895	-30.9515	4.4828	33.8792	102.126	-6.9023	8.6111
0.317	20.8853	1.3172	91.0555	-0.2946	0.7758	0.452	26.8148	-14.3997	7.5564	26.7664	-19.8944	8.9254	0	32.2393	-1.3912	3.0932	40.9059	-13.0692	-1.2694	0	-7.5087	4.7825	-2.5586	24.8589	-28.2526	-5.3951	41.2128	36.8342	-14.3503	-32.4532	16.5865	-30.9605	4.4851	33.8799	102.1326	-6.9044	8.6113
0.333	20.9018	1.3166	91.0516	-0.2945	0.776	0.4518	26.7798	-14.392	7.5452	26.7513	-19.9095	8.9306	0	32.1993	-1.401	3.0921	40.8845	-13.0743	-1.2659	0	-7.5227	4.7784	-2.5551	24.8576	-28.2548	-5.3889	41.2212	36.8269	-14.3562	-32.4472	16.5815	-30.9695	4.4834	33.8805	102.1455	-6.9061	8.6111
0.35	20.9166	1.3157	91.0486	-0.2944	0.7762	0.4517	26.7471	-14.3845	7.5346	26.7373	-19.9224	8.9349	0	32.1622	-1.41	3.091	40.8645	-13.0786	-1.263	0	-7.5356	4.7746	-2.5513	24.8564	-28.2571	-5.3813	41.23	36.8187	-14.3615	-32.4427	16.578	-30.9779	4.4849	33.8845	102.154	-6.9083	8.6112
0.366	20.9292	1.3142	91.0472	-0.2943	0.7763	0.4515	26.7169	-14.3768	7.5249	26.7252	-19.9316	8.9374	0	32.1284	-1.4179	3.0903	40.846	-13.0811	-1.2612	0	-7.5467	4.7709	-2.5464	24.856	-28.2579	-5.369	41.2402	36.8085	-14.3647	-32.4415	16.5778	-30.9862	4.4941	33.895	102.1523	-6.9122	8.6117
0.383	20.94	1.3122	91.0466	-0.2943	0.7765	0.4514	26.6889	-14.3693	7.5158	26.7143	-19.9385	8.939	0	32.0975	-1.425	3.0898	40.8289	-13.0827	-1.26	0	-7.5567	4.7674	-2.5413	24.8558	-28.2588	-5.3552	41.2507	36.7974	-14.3672	-32.4418	16.579	-30.9939	4.5066	33.9088	102.146	-6.9166	8.6126
0.4	20.949	1.3103	91.0461	-0.2942	0.7767	0.4513	26.6638	-14.3615	7.5093	26.7043	-19.9451	8.9399	0	32.0691	-1.432	3.0889	40.8123	-13.0842	-1.2589	0	-7.5659	4.7644	-2.5365	24.8543	-28.2608	-5.3474	41.2573	36.7919	-14.3698	-32.4433	16.5791	-30.9986	4.516	33.9192	102.1412	-6.9196	8.6142
0.417	20.9558	1.3084	91.0451	-0.2941	0.7768	0.4511	26.642	-14.3536	7.5071	26.6951	-19.952	8.94	0	32.0435	-1.4389	3.0876	40.7958	-13.086	-1.2579	0	-7.5741	4.7623	-2.5323	24.8503	-28.2652	-5.3523	41.2562	36.7971	-14.3729	-32.4456	16.5771	-30.9972	4.5189	33.9215	102.1401	-6.92	8.6174
0.433	20.9607	1.3066	91.0442	-0.2941	0.777	0.451	26.6231	-14.3454	7.5075	26.6868	-19.9586	8.9394	0	32.0204	-1.4457	3.086	40.7799	-13.0877	-1.2569	0	-7.5815	4.7607	-2.5285	24.8449	-28.2707	-5.3633	41.251	36.8078	-14.376	-32.449	16.574	-30.9927	4.5187	33.9204	102.1404	-6.919	8.6213
0.45	20.9644	1.3052	91.043	-0.294	0.7771	0.4509	26.6057	-14.3372	7.5074	26.6788	-19.9646	8.9382	0	31.9991	-1.4527	3.084	40.7647	-13.0898	-1.2555	0	-7.5898	4.7589	-2.5245	24.8401	-28.2738	-5.3682	41.2489	36.8154	-14.3794	-32.4537	16.5697	-30.9921	4.5194	33.9233	102.1406	-6.9185	8.6236
0.466	20.967	1.3047	91.0416	-0.2939	0.7772	0.4508	26.5898	-14.3286	7.5058	26.6711	-19.9701	8.9359	0	31.9797	-1.4606	3.0808	40.75	-13.0926	-1.2532	0	-7.6004	4.7565	-2.5202	24.8365	-28.2714	-5.3594	41.2539	36.8161	-14.3831	-32.4607	16.5633	-30.9991	4.5227	33.935	102.1416	-6.9196	8.6225
0.483	20.9684	1.3044	91.0399	-0.2938	0.7774	0.4507	26.5754	-14.3199	7.5038	26.6638	-19.975	8.9331	0	31.9622	-1.4687	3.0772	40.736	-13.0956	-1.2504	0	-7.6117	4.7539	-2.5157	24.8334	-28.2666	-5.3445	41.262	36.8137	-14.387	-32.4688	16.5557	-31.0101	4.5268	33.9506	102.1426	-6.9214	8.6198
0.5	20.9688	1.304	91.0384	-0.2938	0.7775	0.4506	26.5622	-14.3119	7.5012	26.6569	-19.9798	8.931	0	31.9459	-1.4763	3.0748	40.7227	-13.0985	-1.2478	0	-7.621	4.7513	-2.5117	24.8306	-28.2647	-5.3348	41.2682	36.8111	-14.3908	-32.4752	16.5494	-31.0208	4.5298	33.9633	102.1399	-6.9222	8.6186
0.516	20.9681	1.3032	91.0369	-0.2937	0.7776	0.4504	26.5504	-14.3051	7.4983	26.6505	-19.9846	8.9302	0	31.931	-1.483	3.0741	40.7105	-13.1008	-1.2457	0	-7.6264	4.7488	-2.5086	24.828	-28.2689	-5.3365	41.27	36.809	-14.3943	-32.4779	16.5457	-31.031	4.5313	33.9694	102.1291	-6.9212	8.6207
0.533	20.9665	1.3023	91.0356	-0.2937	0.7778	0.4503	26.5399	-14.299	7.4947	26.6446	-19.9893	8.9302	0	31.9174	-1.4893	3.0746	40.699	-13.1028	-1.2439	0	-7.6297	4.7464	-2.506	24.8258	-28.2759	-5.3434	41.27	36.8067	-14.3978	-32.4788	16.5433	-31.0409	4.5318	33.9725	102.1147	-6.9193	8.6243
0.55	20.9653	1.3011	91.0346	-0.2936	0.7779	0.4502	26.5291	-14.2933	7.4895	26.6389	-19.9931	8.9308	0	31.904	-1.4951	3.0762	40.6877	-13.1047	-1.2425	0	-7.633	4.744	-2.5034	24.8237	-28.2812	-5.3475	41.271	36.8046	-14.4016	-32.4804	16.5408	-31.0476	4.5308	33.9765	102.1061	-6.9184	8.6273
0.566	20.965	1.2998	91.0339	-0.2935	0.778	0.4501	26.5175	-14.2876	7.4814	26.6331	-19.9957	8.9325	0	31.8899	-1.5007	3.0791	40.6762	-13.1066	-1.2417	0	-7.6369	4.7419	-2.5007	24.8217	-28.2823	-5.3449	41.2743	36.8031	-14.4061	-32.4838	16.5373	-31.0487	4.5266	33.9825	102.1092	-6.9194	8.6285
0.583	20.965	1.2986	91.0335	-0.2935	0.7781	0.45	26.5058	-14.2821	7.4716	26.6276	-19.9974	8.9348	0	31.876	-1.5058	3.0831	40.6649	-13.1083	-1.2414	0	-7.6409	4.7399	-2.498	24.82	-28.2817	-5.3396	41.2785	36.8018	-14.4108	-32.4878	16.5338	-31.0465	4.521	33.9893	102.1183	-6.9213	8.6291
0.6	20.9648	1.2971	91.0334	-0.2934	0.7782	0.4499	26.495	-14.2769	7.4634	26.6226	-19.999	8.9363	0	31.8633	-1.5104	3.0877	40.6545	-13.1101	-1.2417	0	-7.6452	4.7379	-2.495	24.8184	-28.2819	-5.3355	41.2826	36.7998	-14.4149	-32.4914	16.5313	-31.0456	4.5191	33.9977	102.1255	-6.923	8.6304
0.616	20.9643	1.2956	91.0338	-0.2934	0.7783	0.4498	26.4855	-14.2718	7.4579	26.6183	-20.0008	8.9363	0	31.8523	-1.5139	3.0932	40.6453	-13.112	-1.2432	0	-7.6502	4.7359	-2.4917	24.8174	-28.2841	-5.3351	41.2851	36.7975	-14.418	-32.4943	16.5309	-31.0482	4.5244	34.0083	102.1278	-6.9244	8.6333
